<?xml version="1.0" encoding="utf-8"?>
<?xml-stylesheet type="text/xsl" href="rss1.xsl"?>
<rss version="2.0" xmlns:atom="http://www.w3.org/2005/Atom" xmlns:content="http://purl.org/rss/1.0/modules/content/" xmlns:dc="http://purl.org/dc/elements/1.1/" xmlns:media="http://search.yahoo.com/mrss/">
<channel>
 <title>Getty</title>
 <link>http://www.gettyimg.com/</link>
 <atom:link href="http://www.gettyimg.com/" rel="self" type="application/rss+xml" />

 
                <item>
                <title><![CDATA[【Requests】[REQ AUD] - Duran Duran - Danse Macabre (Atmos Mix)]]></title>
                <link><![CDATA[https://sharemania.us/threads/duran-duran-danse-macabre-atmos-mix.231298/]]></link>
                <description><![CDATA[<article>
<blockquote class="messageText SelectQuoteContainer ugc baseHtml">
Please!!!
<div class="messageTextEndMarker">&nbsp;</div>
</blockquote>
</article>]]></description>
                <author><![CDATA[classicrocker]]></author>
                </item>

                
                <item>
                <title><![CDATA[【Singles (lossless)】WAV - The Corrs - The Right Time (Remixes) [1997] | {Vinyl Transfer} 24bit/48GHz]]></title>
                <link><![CDATA[https://sharemania.us/threads/the-corrs-the-right-time-remixes-1997-vinyl-transfer-24bit-48ghz.231295/]]></link>
                <description><![CDATA[<article>
<blockquote class="messageText SelectQuoteContainer ugc baseHtml">
<img src="https://i.imgur.com/9g0OJcY.jpg" class="bbCodeImage LbImage" alt="[​IMG]" data-url="https://i.imgur.com/9g0OJcY.jpg" style=""> <br>
<br>
Remixed by Lenny B. Transferred by my Fairy Godfather, cleaned by yours truly. Password is main domain with extension in lowercase (xxxxxxxxxx.xx).<br>
<br>
Saw a bunch of chumpstains TRADING horrible uncleaned crackly-popping-hissy LQ mp3 versions of this, so I thought "<i>not on my watch, bitchez</i>". A friend of mine had a copy &amp; his own vinyl-transferring setup. 2 days later, the rest was history.<br>
<br>
We need more vinyl-exclusive rips in the world.<br>
<br>
<img src="https://i.imgur.com/RtjfC0C.gif" class="bbCodeImage LbImage" alt="[​IMG]" data-url="https://i.imgur.com/RtjfC0C.gif" style=""> <br>
<br>
<div class="ToggleTriggerAnchor bbCodeSpoilerContainer">
<button type="button" class="button bbCodeSpoilerButton ToggleTrigger Tooltip JsOnly" data-target="> .SpoilerTarget"><span>Spoiler: <span class="SpoilerTitle">Track List</span></span></button>
<div class="SpoilerTarget bbCodeSpoilerText"><ol>
<li>The Right Time (Lenny B's Club Mix)</li>
<li>The Right Time (Lenny B's Club Instrumental)</li>
<li>The Right Time (Lenny B's Radio Mix)</li>
<li>The Right Time (Lenny B's Radio Instrumental)</li>
<li>The Right Time (Lenny B's Radio Beats)</li>
</ol></div>
</div><ol>
<li></li>
</ol><br>
<div class="bbCodeBlock bbCodeVfcHH HiddenContent">
<div class="attribution type">Hidden Content:</div>
<blockquote>You must reply before you can see the hidden data contained here.</blockquote>
</div>
<div class="messageTextEndMarker">&nbsp;</div>
</blockquote>
</article>]]></description>
                <author><![CDATA[KingOfHell1661]]></author>
                </item>

                
                <item>
                <title><![CDATA[【HD Live Performances】FEED - Battle of the Baddest 2023.28.10 Fury vs Ngannou Opening Ceremony Satellite FEED 1080i H264 30mbps 25fps-TSS]]></title>
                <link><![CDATA[https://sharemania.us/threads/battle-of-the-baddest-2023-28-10-fury-vs-ngannou-opening-ceremony-satellite-feed-1080i-h264-30mbps-25fps-tss.231296/]]></link>
                <description><![CDATA[<article>
<blockquote class="messageText SelectQuoteContainer ugc baseHtml">
<img src="https://i.imgur.com/zglt0IO.png" class="bbCodeImage LbImage" alt="[​IMG]" data-url="https://i.imgur.com/zglt0IO.png" style=""> <br>
<div style="text-align: center">Burna Boy<br>
Lil Baby<br>
Becky G<br>
<br>
<div style="text-align: left">​</div></div>
<div class="ToggleTriggerAnchor bbCodeSpoilerContainer">
<button type="button" class="button bbCodeSpoilerButton ToggleTrigger Tooltip JsOnly" data-target="> .SpoilerTarget"><span>Spoiler: <span class="SpoilerTitle">Media Info</span></span></button>
<div class="SpoilerTarget bbCodeSpoilerText"><div style="text-align: left">General<br>
Unique ID : 249716618983704592391313035681798854492 (0xBBDDABE19A7BC8AFF2DFABA2DB60975C)<br>
Complete name : C:\Users\thesl\Videos\Sharemania\Battle of the Baddest 2023.28.10 Fury vs Ngannou Opening Ceremony Satellite FEED 1080i H264 30mbps 25fps.mkv<br>
Format : Matroska<br>
Format version : Version 4<br>
File size : 3.32 GiB<br>
Duration : 16 min 46 s<br>
Overall bit rate mode : Constant<br>
Overall bit rate : 28.3 Mb/s<br>
Encoded date : UTC 2023-10-29 10:16:31<br>
Writing application : mkvmerge v78.0 ('Running') 64-bit<br>
Writing library : libebml v1.4.4 + libmatroska v1.7.1<br>
Video<br>
ID : 1<br>
Format : AVC<br>
Format/Info : Advanced Video Codec<br>
Format profile : High@L4.1<br>
Format settings : CABAC / 3 Ref Frames<br>
Format settings, CABAC : Yes<br>
Format settings, Reference frames : 3 frames<br>
Codec ID : V_MPEG4/ISO/AVC<br>
Duration : 16 min 46 s<br>
Bit rate mode : Constant<br>
Bit rate : 27.3 Mb/s<br>
Nominal bit rate : 28.9 Mb/s<br>
Width : 1 920 pixels<br>
Height : 1 080 pixels<br>
Display aspect ratio : 16:9<br>
Frame rate mode : Variable<br>
Frame rate : 45.444 FPS<br>
Original frame rate : 25.000 FPS<br>
Color space : YUV<br>
Chroma subsampling : 4:2:0<br>
Bit depth : 8 bits<br>
Scan type : Interlaced<br>
Scan type, store method : Separated fields<br>
Scan order : Top Field First<br>
Bits/(Pixel*Frame) : 0.290<br>
Stream size : 3.20 GiB (97%)<br>
Default : Yes<br>
Forced : No<br>
Color range : Limited<br>
Color primaries : BT.709<br>
Transfer characteristics : BT.709<br>
Matrix coefficients : BT.709<br>
Audio #1<br>
ID : 2<br>
Format : MPEG Audio<br>
Format version : Version 1<br>
Format profile : Layer 2<br>
Codec ID : A_MPEG/L2<br>
Codec ID/Hint : MP2<br>
Duration : 16 min 46 s<br>
Bit rate mode : Constant<br>
Bit rate : 192 kb/s<br>
Channel(s) : 2 channels<br>
Sampling rate : 48.0 kHz<br>
Frame rate : 41.667 FPS (1152 SPF)<br>
Compression mode : Lossy<br>
Stream size : 23.0 MiB (1%)<br>
Language : English<br>
Default : Yes<br>
Forced : No<br>
Audio #2<br>
ID : 3<br>
Format : MPEG Audio<br>
Format version : Version 1<br>
Format profile : Layer 2<br>
Codec ID : A_MPEG/L2<br>
Codec ID/Hint : MP2<br>
Duration : 16 min 46 s<br>
Bit rate mode : Constant<br>
Bit rate : 192 kb/s<br>
Channel(s) : 2 channels<br>
Sampling rate : 48.0 kHz<br>
Frame rate : 41.667 FPS (1152 SPF)<br>
Compression mode : Lossy<br>
Stream size : 23.0 MiB (1%)<br>
Language : English<br>
Default : Yes<br>
Forced : No<br>
Audio #3<br>
ID : 4<br>
Format : MPEG Audio<br>
Format version : Version 1<br>
Format profile : Layer 2<br>
Codec ID : A_MPEG/L2<br>
Codec ID/Hint : MP2<br>
Duration : 16 min 46 s<br>
Bit rate mode : Constant<br>
Bit rate : 192 kb/s<br>
Channel(s) : 2 channels<br>
Sampling rate : 48.0 kHz<br>
Frame rate : 41.667 FPS (1152 SPF)<br>
Compression mode : Lossy<br>
Stream size : 23.0 MiB (1%)<br>
Language : English<br>
Default : Yes<br>
Forced : No<br>
Audio #4<br>
ID : 5<br>
Format : MPEG Audio<br>
Format version : Version 1<br>
Format profile : Layer 2<br>
Codec ID : A_MPEG/L2<br>
Codec ID/Hint : MP2<br>
Duration : 16 min 46 s<br>
Bit rate mode : Constant<br>
Bit rate : 192 kb/s<br>
Channel(s) : 2 channels<br>
Sampling rate : 48.0 kHz<br>
Frame rate : 41.667 FPS (1152 SPF)<br>
Compression mode : Lossy<br>
Stream size : 23.0 MiB (1%)<br>
Language : English<br>
Default : Yes<br>
Forced : No<br>
Audio #5<br>
ID : 6<br>
Format : MPEG Audio<br>
Format version : Version 1<br>
Format profile : Layer 2<br>
Codec ID : A_MPEG/L2<br>
Codec ID/Hint : MP2<br>
Duration : 16 min 46 s<br>
Bit rate mode : Constant<br>
Bit rate : 192 kb/s<br>
Channel(s) : 2 channels<br>
Sampling rate : 48.0 kHz<br>
Frame rate : 41.667 FPS (1152 SPF)<br>
Compression mode : Lossy<br>
Stream size : 23.0 MiB (1%)<br>
Language : English<br>
Default : Yes<br>
Forced : No<br>
​</div></div>
</div><div style="text-align: left"><br>
<br>
<div class="bbCodeBlock bbCodeVfcHH HiddenContent">
<div class="attribution type">Hidden Content:</div>
<blockquote>You must reply before you can see the hidden data contained here.</blockquote>
</div></div>
<div class="messageTextEndMarker">&nbsp;</div>
</blockquote>
</article>]]></description>
                <author><![CDATA[theslothsidd]]></author>
                </item>

                
                <item>
                <title><![CDATA[【Requests】[REQ VID] - BE:First - Mainstream (Live Performance)]]></title>
                <link><![CDATA[https://sharemania.us/threads/be-first-mainstream-live-performance.231297/]]></link>
                <description><![CDATA[<article>
<blockquote class="messageText SelectQuoteContainer ugc baseHtml">
Any of their lives please
<div class="messageTextEndMarker">&nbsp;</div>
</blockquote>
</article>]]></description>
                <author><![CDATA[kimiko89]]></author>
                </item>

                </channel></rss>